<svg width="739" height="177" viewBox="0 0 739 177" fill="none" xmlns="http://www.w3.org/2000/svg">
<mask id="mask0_880_346" style="mask-type:alpha" maskUnits="userSpaceOnUse" x="250" y="0" width="489" height="164">
<path d="M738.5 62.5C639.7 213.7 371.667 161.5 250 116.5V0H738.5V62.5Z" fill="#2E3676"/>
</mask>
<g mask="url(#mask0_880_346)">
<path d="M719 128.55C719 131.552 717.343 134.159 714.819 135.502L652.497 170.578C651.234 171.526 649.657 172 648 172C646.343 172 644.766 171.526 643.503 170.578L581.181 135.502C578.657 134.159 577 131.552 577 128.55V57.45C577 54.448 578.657 51.841 581.181 50.498L643.503 15.422C644.766 14.474 646.343 14 648 14C649.657 14 651.234 14.474 652.497 15.422L714.819 50.498C717.343 51.841 719 54.448 719 57.45V128.55ZM648 30.985L633.09 39.438L679.556 66.219L695.018 57.45L648 30.985ZM600.982 57.45L648 83.915L663.462 75.225L617.076 48.365L600.982 57.45ZM592.778 123.889L640.111 150.591V97.582L592.778 70.959V123.889ZM703.222 123.889V70.959L655.889 97.582V150.591L703.222 123.889Z" fill="#181847"/>
</g>
<path d="M739 65C580.134 213.262 180.139 162.268 0 118.238V177H739V65Z" fill="#FAFAFA"/>
</svg>
