<svg width="855" height="1194" viewBox="0 0 855 1194" fill="none" xmlns="http://www.w3.org/2000/svg">
<g id="Group 19">
<path id="Vector" d="M728.72 382L721.41 389.04L641.89 465.67L507.08 595.58L513.43 1151.66L0.669983 1025.42V657.37L194.1 434.39L728.72 382Z" fill="#373E46"/>
<path id="Vector_2" opacity="0.1" d="M728.72 382L721.41 389.04L641.89 465.67L507.08 595.58L513.43 1151.66L0.669983 1025.42V657.37L194.1 434.39L728.72 382Z" fill="black"/>
<path id="Vector_3" d="M783.79 735.28L769.02 1112.73L239.77 1193.33L0.669983 1025.42V662.74L507.08 595.58L783.79 735.28Z" fill="#373E46"/>
<path id="Vector_4" d="M783.12 735.28L768.34 1112.73L239.1 1193.33L0 1025.42V662.74L506.41 595.58L783.12 735.28Z" fill="#373E46"/>
<path id="Vector_5" opacity="0.1" d="M239.77 803.78V1193.33L0.669983 1025.42V662.98L239.77 803.78Z" fill="black"/>
<path id="Vector_6" opacity="0.1" d="M721.41 389.04L641.89 465.67L258.58 508.27L190.07 441.1L721.41 389.04Z" fill="black"/>
<path id="Vector_7" opacity="0.1" d="M507.08 595.58L512.45 1155.72L769.02 1112.73L783.79 735.28L507.08 595.58Z" fill="black"/>
<path id="Vector_8" d="M783.79 735.28L680.36 725.87L431.91 602.86L507.08 595.58L783.79 735.28Z" fill="#373E46"/>
<path id="Vector_9" d="M194.1 434.39L262.61 501.55L722 450.51L728.72 382L194.1 434.39Z" fill="#373E46"/>
<g id="baloon-3" opacity="0.7">
<path id="Vector_10" opacity="0.7" d="M540.402 135.82C543.125 192.667 501.387 285.603 444.539 288.326C387.692 291.048 337.263 202.527 334.54 145.68C333.237 118.384 342.83 91.6878 361.209 71.4639C379.587 51.2399 405.246 39.1441 432.542 37.8367C459.838 36.5293 486.535 46.1175 506.762 64.4924C526.99 82.8673 539.09 108.524 540.402 135.82V135.82Z" fill="#8A2BE2"/>
<path id="Vector_11" opacity="0.7" d="M454.936 297.771C451.943 295.84 448.42 294.893 444.862 295.063C441.304 295.234 437.888 296.513 435.093 298.722L434.143 278.88L453.985 277.929L454.936 297.771Z" fill="#8A2BE2"/>
<path id="Vector_12" opacity="0.7" d="M434.65 288.378C437.808 289.791 441.256 290.435 444.711 290.255C448.166 290.075 451.529 289.078 454.524 287.344" stroke="#2F2E41" stroke-width="2" stroke-miterlimit="10"/>
<path id="Vector_13" opacity="0.4" d="M499.879 94.2561C499.19 79.8731 488.915 68.6788 476.929 69.2529C464.943 69.827 455.785 81.952 456.474 96.3351C457.163 110.718 467.438 121.913 479.424 121.338C491.41 120.764 500.568 108.639 499.879 94.2561Z" fill="white"/>
<path id="Vector_14" opacity="0.7" d="M444.446 289.111L460.185 884.354" stroke="#2F2E41" stroke-width="2" stroke-miterlimit="10"/>
</g>
<g id="baloon-1">
<path id="Vector_15" d="M780.898 398.816C760.263 477.209 663.779 585.595 585.386 564.96C506.994 544.324 476.379 402.481 497.014 324.088C506.935 286.455 531.395 254.302 565.018 234.7C598.64 215.098 638.67 209.652 676.307 219.56C713.944 229.467 746.105 253.916 765.719 287.532C785.333 321.147 790.793 361.176 780.898 398.816Z" fill="#2F3675"/>
<path id="Vector_16" d="M595.466 582.242C592.227 578.337 587.847 575.543 582.94 574.251C578.034 572.959 572.846 573.235 568.104 575.039L575.306 547.677L602.669 554.88L595.466 582.242Z" fill="#2F3675"/>
<path id="Vector_17" d="M571.929 560.798C575.614 564.07 580.024 566.42 584.794 567.655C589.565 568.89 594.561 568.974 599.37 567.901" stroke="#2F2E41" stroke-width="2" stroke-miterlimit="10"/>
<path id="Vector_18" d="M584.493 571.081L516.068 831.021" stroke="#2F2E41" stroke-width="2" stroke-miterlimit="10"/>
<path id="Vector_19" opacity="0.4" d="M743.64 325.006C748.861 305.172 739.694 285.566 723.166 281.215C706.637 276.864 689.006 289.416 683.785 309.25C678.564 329.084 687.73 348.69 704.259 353.041C720.787 357.392 738.419 344.84 743.64 325.006Z" fill="white"/>
</g>
<g id="baloon-2">
<path id="Vector_20" d="M410.053 333.509C433.194 411.199 407.146 553.952 329.456 577.092C251.766 600.233 151.853 494.998 128.713 417.308C117.63 380.009 121.812 339.836 140.338 305.618C158.864 271.401 190.22 245.94 227.511 234.832C264.803 223.725 304.979 227.879 339.209 246.383C373.439 264.886 398.92 296.224 410.053 333.509V333.509Z" fill="#8A2BE2"/>
<path id="Vector_21" d="M347.053 586.612C342.256 584.961 337.062 584.851 332.199 586.3C327.336 587.748 323.049 590.682 319.936 594.689L311.859 567.572L338.976 559.495L347.053 586.612Z" fill="#892AE2"/>
<path id="Vector_22" d="M315.798 580.535C320.647 581.413 325.635 581.128 330.352 579.701C335.069 578.275 339.38 575.75 342.93 572.332" stroke="#2F2E41" stroke-width="2" stroke-miterlimit="10"/>
<path id="Vector_23" opacity="0.4" d="M339.845 289.839C333.99 270.183 315.965 258.203 299.585 263.082C283.204 267.961 274.672 287.851 280.526 307.508C286.381 327.164 304.406 339.144 320.787 334.264C337.167 329.385 345.7 309.496 339.845 289.839Z" fill="white"/>
<path id="Vector_24" d="M332.13 582.599L408.862 840.209" stroke="#2F2E41" stroke-width="2" stroke-miterlimit="10"/>
</g>
<path id="Vector_25" d="M783.12 737.29L777.01 868.53L774.54 921.56L765.66 1112.06L236.41 1194V803.11L783.12 737.29Z" fill="#373E46"/>
<path id="Vector_26" d="M0.669983 662.74L102.66 649.21L317.68 764.83L239.77 803.78L0.669983 662.74Z" fill="#373E46"/>
<path id="Vector_27" opacity="0.05" d="M0.669983 662.74L102.66 649.21L317.68 764.83L239.77 803.78L0.669983 662.74Z" fill="black"/>
<path id="Vector_28" opacity="0.1" d="M740.02 1082.08L731.66 1077.6C731.319 1077.42 730.927 1077.34 730.543 1077.4C730.158 1077.45 729.8 1077.62 729.52 1077.89L722.67 1084.47C722.391 1084.74 722.034 1084.91 721.65 1084.97C721.266 1085.02 720.875 1084.95 720.533 1084.76C720.192 1084.58 719.917 1084.29 719.75 1083.94C719.582 1083.59 719.53 1083.2 719.6 1082.82L721.27 1073.48C721.339 1073.1 721.285 1072.71 721.116 1072.36C720.947 1072.01 720.672 1071.72 720.33 1071.54L711.96 1067.06C711.619 1066.88 711.346 1066.59 711.178 1066.24C711.01 1065.89 710.957 1065.5 711.026 1065.12C711.094 1064.73 711.281 1064.38 711.561 1064.12C711.84 1063.85 712.196 1063.67 712.58 1063.62L721.98 1062.33C722.365 1062.28 722.722 1062.1 723.002 1061.83C723.282 1061.56 723.47 1061.21 723.54 1060.83L725.21 1051.49C725.28 1051.11 725.468 1050.76 725.748 1050.49C726.027 1050.23 726.384 1050.05 726.767 1050C727.15 1049.95 727.54 1050.02 727.882 1050.2C728.223 1050.38 728.499 1050.66 728.67 1051.01L732.8 1059.56C732.974 1059.91 733.252 1060.19 733.594 1060.37C733.937 1060.55 734.327 1060.61 734.71 1060.56L744.11 1059.27C744.495 1059.21 744.887 1059.28 745.23 1059.46C745.573 1059.65 745.85 1059.93 746.019 1060.28C746.188 1060.63 746.242 1061.03 746.172 1061.41C746.102 1061.79 745.912 1062.14 745.63 1062.41L738.79 1069C738.51 1069.27 738.321 1069.62 738.251 1070C738.181 1070.38 738.233 1070.78 738.4 1071.13L742.54 1079.67C742.703 1080.02 742.753 1080.41 742.682 1080.79C742.611 1081.17 742.423 1081.51 742.145 1081.78C741.867 1082.05 741.512 1082.22 741.131 1082.27C740.75 1082.33 740.361 1082.26 740.02 1082.08V1082.08Z" fill="black"/>
<path id="Vector_29" d="M434.679 1063.45L427.249 1059.45C426.947 1059.29 426.601 1059.22 426.262 1059.27C425.922 1059.32 425.606 1059.47 425.359 1059.71L419.289 1065.54C419.041 1065.77 418.724 1065.93 418.384 1065.97C418.044 1066.02 417.698 1065.96 417.396 1065.8C417.094 1065.63 416.85 1065.38 416.7 1065.07C416.549 1064.76 416.5 1064.42 416.559 1064.08L418.039 1055.79C418.101 1055.45 418.053 1055.1 417.904 1054.79C417.755 1054.48 417.512 1054.23 417.209 1054.07L409.789 1050.1C409.505 1049.93 409.28 1049.67 409.144 1049.37C409.008 1049.07 408.967 1048.73 409.027 1048.41C409.086 1048.08 409.244 1047.78 409.478 1047.55C409.713 1047.31 410.013 1047.16 410.339 1047.1L418.669 1045.95C419.01 1045.9 419.327 1045.75 419.576 1045.51C419.824 1045.28 419.99 1044.97 420.049 1044.63L421.539 1036.34C421.6 1036 421.767 1035.69 422.016 1035.45C422.264 1035.21 422.581 1035.06 422.922 1035.02C423.262 1034.97 423.609 1035.03 423.912 1035.19C424.215 1035.36 424.459 1035.61 424.609 1035.92L428.269 1043.5C428.42 1043.81 428.664 1044.06 428.968 1044.22C429.271 1044.38 429.618 1044.45 429.959 1044.4L438.299 1043.25C438.64 1043.2 438.986 1043.26 439.29 1043.43C439.593 1043.59 439.837 1043.84 439.986 1044.15C440.136 1044.46 440.184 1044.81 440.124 1045.15C440.063 1045.49 439.897 1045.8 439.649 1046.04L433.579 1051.87C433.33 1052.11 433.163 1052.41 433.102 1052.75C433.041 1053.09 433.089 1053.44 433.239 1053.75L436.909 1061.33C437.055 1061.64 437.099 1061.98 437.037 1062.32C436.974 1062.65 436.807 1062.96 436.56 1063.19C436.313 1063.43 435.999 1063.58 435.661 1063.63C435.323 1063.67 434.979 1063.61 434.679 1063.45V1063.45Z" fill="#892AE2"/>
<path id="Vector_30" d="M663.679 832.448L656.249 828.448C655.947 828.286 655.601 828.224 655.262 828.27C654.922 828.317 654.606 828.47 654.359 828.708L648.289 834.538C648.041 834.775 647.724 834.927 647.384 834.973C647.044 835.019 646.698 834.957 646.396 834.795C646.094 834.633 645.85 834.38 645.7 834.072C645.549 833.764 645.5 833.416 645.559 833.078L647.039 824.788C647.101 824.451 647.053 824.102 646.904 823.793C646.755 823.484 646.512 823.23 646.209 823.068L638.789 819.098C638.505 818.927 638.28 818.674 638.144 818.372C638.008 818.07 637.967 817.734 638.027 817.408C638.086 817.082 638.244 816.782 638.478 816.548C638.713 816.314 639.013 816.157 639.339 816.098L647.669 814.948C648.01 814.904 648.327 814.752 648.576 814.515C648.824 814.277 648.99 813.967 649.049 813.628L650.539 805.338C650.6 805 650.767 804.69 651.016 804.452C651.264 804.215 651.581 804.062 651.922 804.015C652.262 803.968 652.609 804.031 652.912 804.193C653.215 804.355 653.459 804.609 653.609 804.918L657.269 812.498C657.42 812.807 657.664 813.061 657.968 813.222C658.271 813.384 658.618 813.446 658.959 813.398L667.299 812.248C667.64 812.202 667.986 812.264 668.29 812.427C668.593 812.589 668.837 812.844 668.986 813.153C669.136 813.463 669.184 813.812 669.124 814.15C669.063 814.489 668.897 814.8 668.649 815.038L662.579 820.868C662.33 821.105 662.163 821.415 662.102 821.753C662.041 822.091 662.089 822.439 662.239 822.748L665.909 830.328C666.055 830.636 666.099 830.983 666.037 831.318C665.974 831.653 665.807 831.96 665.56 832.194C665.313 832.429 664.999 832.58 664.661 832.626C664.323 832.671 663.979 832.609 663.679 832.448V832.448Z" fill="#892AE2"/>
<path id="Vector_31" opacity="0.1" d="M303.46 881.93L295.1 877.45C294.757 877.269 294.366 877.201 293.982 877.255C293.598 877.309 293.24 877.482 292.96 877.75L286.11 884.32C285.831 884.589 285.474 884.763 285.09 884.816C284.706 884.869 284.315 884.798 283.973 884.615C283.632 884.431 283.357 884.144 283.19 883.794C283.022 883.445 282.97 883.051 283.04 882.67L284.71 873.33C284.777 872.949 284.723 872.556 284.554 872.208C284.385 871.86 284.111 871.573 283.77 871.39L275.4 866.91C275.058 866.728 274.782 866.442 274.613 866.093C274.444 865.744 274.39 865.35 274.459 864.969C274.527 864.587 274.716 864.237 274.997 863.97C275.277 863.702 275.636 863.531 276.02 863.48L285.42 862.18C285.804 862.127 286.161 861.955 286.441 861.688C286.721 861.42 286.91 861.071 286.98 860.69L288.65 851.34C288.722 850.96 288.911 850.613 289.191 850.347C289.471 850.081 289.828 849.909 290.211 849.857C290.593 849.805 290.983 849.875 291.324 850.057C291.665 850.239 291.94 850.523 292.11 850.87L296.25 859.41C296.42 859.757 296.695 860.04 297.037 860.22C297.378 860.4 297.768 860.466 298.15 860.41L307.55 859.11C307.935 859.058 308.325 859.13 308.667 859.314C309.009 859.497 309.283 859.785 309.452 860.134C309.62 860.483 309.674 860.877 309.606 861.259C309.537 861.641 309.35 861.991 309.07 862.26L302.23 868.83C301.946 869.106 301.761 869.468 301.701 869.86C301.642 870.251 301.711 870.652 301.9 871L306.03 879.54C306.198 879.893 306.249 880.291 306.175 880.675C306.102 881.06 305.908 881.411 305.621 881.677C305.335 881.944 304.971 882.112 304.582 882.157C304.193 882.203 303.8 882.123 303.46 881.93V881.93Z" fill="black"/>
<path id="Vector_32" d="M302.23 880.21L294.81 876.21C294.506 876.05 294.159 875.989 293.818 876.036C293.478 876.082 293.16 876.234 292.91 876.47L286.84 882.3C286.592 882.536 286.275 882.689 285.935 882.735C285.595 882.781 285.25 882.719 284.947 882.557C284.645 882.395 284.401 882.142 284.251 881.834C284.1 881.526 284.051 881.178 284.11 880.84L285.59 872.56C285.653 872.222 285.607 871.873 285.458 871.564C285.308 871.254 285.064 871.001 284.76 870.84L277.34 866.84C277.051 866.673 276.821 866.42 276.681 866.117C276.542 865.814 276.499 865.475 276.559 865.146C276.619 864.818 276.78 864.516 277.018 864.283C277.256 864.049 277.561 863.894 277.89 863.84L286.22 862.69C286.562 862.644 286.88 862.49 287.128 862.251C287.376 862.012 287.541 861.7 287.6 861.36L289.09 853.08C289.152 852.742 289.318 852.432 289.567 852.194C289.815 851.956 290.132 851.803 290.473 851.757C290.813 851.71 291.16 851.773 291.463 851.935C291.766 852.097 292.01 852.351 292.16 852.66L295.82 860.23C295.97 860.54 296.214 860.795 296.518 860.956C296.822 861.118 297.169 861.179 297.51 861.13L305.9 860C306.241 859.949 306.589 860.009 306.894 860.17C307.199 860.331 307.444 860.585 307.595 860.895C307.745 861.205 307.793 861.555 307.731 861.894C307.669 862.233 307.5 862.543 307.25 862.78L301.18 868.61C300.931 868.848 300.763 869.16 300.702 869.5C300.641 869.839 300.689 870.19 300.84 870.5L304.51 878.07C304.668 878.384 304.721 878.741 304.66 879.088C304.598 879.434 304.427 879.752 304.17 879.992C303.914 880.233 303.586 880.385 303.236 880.424C302.887 880.463 302.534 880.388 302.23 880.21V880.21Z" fill="#892AE2"/>
<path id="Vector_33" opacity="0.1" d="M740.02 1002.83L731.66 998.35C731.319 998.165 730.927 998.094 730.543 998.146C730.158 998.198 729.8 998.371 729.52 998.64L722.67 1005.21C722.392 1005.48 722.035 1005.65 721.653 1005.7C721.27 1005.76 720.88 1005.69 720.539 1005.5C720.199 1005.32 719.924 1005.04 719.755 1004.69C719.587 1004.34 719.532 1003.95 719.6 1003.57L721.27 994.23C721.349 993.84 721.301 993.434 721.131 993.074C720.962 992.714 720.681 992.418 720.33 992.23L711.96 987.76C711.619 987.575 711.346 987.288 711.178 986.939C711.01 986.59 710.957 986.197 711.026 985.816C711.094 985.434 711.281 985.085 711.561 984.816C711.84 984.548 712.196 984.374 712.58 984.32L721.98 983.02C722.364 982.969 722.723 982.797 723.003 982.529C723.283 982.261 723.471 981.912 723.54 981.53L725.21 972.19C725.28 971.81 725.468 971.461 725.748 971.194C726.027 970.926 726.384 970.754 726.767 970.701C727.15 970.648 727.54 970.717 727.882 970.898C728.223 971.079 728.499 971.363 728.67 971.71L732.8 980.25C732.973 980.596 733.25 980.879 733.593 981.059C733.936 981.238 734.327 981.305 734.71 981.25L744.11 979.96C744.495 979.904 744.887 979.973 745.23 980.155C745.573 980.337 745.85 980.624 746.019 980.974C746.188 981.324 746.242 981.718 746.172 982.1C746.102 982.483 745.912 982.833 745.63 983.1L738.79 989.67C738.51 989.939 738.321 990.29 738.251 990.672C738.181 991.054 738.233 991.449 738.4 991.8L742.54 1000.34C742.734 1000.69 742.808 1001.1 742.751 1001.49C742.694 1001.89 742.509 1002.26 742.223 1002.54C741.938 1002.82 741.568 1003 741.17 1003.05C740.773 1003.11 740.369 1003.03 740.02 1002.83Z" fill="black"/>
<path id="Vector_34" d="M738.79 1001.1L731.36 997.1C731.058 996.936 730.712 996.873 730.372 996.92C730.032 996.967 729.716 997.121 729.47 997.36L723.4 1003.19C723.152 1003.43 722.835 1003.58 722.495 1003.62C722.155 1003.67 721.81 1003.61 721.507 1003.45C721.205 1003.29 720.961 1003.03 720.811 1002.72C720.66 1002.42 720.611 1002.07 720.67 1001.73L722.15 993.44C722.212 993.102 722.165 992.754 722.015 992.445C721.866 992.136 721.623 991.882 721.32 991.72L713.9 987.72C713.616 987.549 713.391 987.296 713.255 986.994C713.119 986.692 713.078 986.356 713.138 986.03C713.198 985.704 713.355 985.404 713.59 985.17C713.824 984.936 714.124 984.779 714.45 984.72L722.78 983.57C723.121 983.526 723.439 983.374 723.687 983.137C723.935 982.899 724.101 982.588 724.16 982.25L725.65 973.96C725.711 973.622 725.878 973.312 726.127 973.074C726.375 972.836 726.692 972.683 727.033 972.637C727.373 972.59 727.72 972.653 728.023 972.815C728.326 972.977 728.57 973.231 728.72 973.54L732.38 981.11C732.53 981.42 732.775 981.675 733.078 981.838C733.381 982.001 733.728 982.065 734.07 982.02L742.41 980.87C742.751 980.823 743.098 980.886 743.401 981.049C743.704 981.211 743.948 981.465 744.097 981.775C744.247 982.085 744.295 982.434 744.235 982.772C744.174 983.111 744.008 983.422 743.76 983.66L737.69 989.49C737.44 989.726 737.272 990.036 737.211 990.374C737.15 990.712 737.198 991.061 737.35 991.37L741.02 998.94C741.173 999.25 741.224 999.6 741.165 999.94C741.106 1000.28 740.941 1000.59 740.693 1000.83C740.445 1001.07 740.127 1001.23 739.785 1001.28C739.443 1001.32 739.094 1001.26 738.79 1001.1V1001.1Z" fill="#892AE2"/>
<path id="Vector_35" d="M777.01 868.53L774.54 921.56L236.41 976.89L0.669983 869.51V817.89L236.41 920.79L777.01 868.53Z" fill="#892AE2"/>
<path id="Vector_36" opacity="0.1" d="M236.41 920.79V976.89L0.669983 869.51V817.89L236.41 920.79Z" fill="black"/>
</g>

<style type="text/css">
    @keyframes baloon-1 {
        0%   {
            transform: rotate(0deg);
        }
        50%   {
            transform: rotate(-10deg);
        }
        100%   {
            transform: rotate(0deg);
        }   
    }
    @keyframes baloon-2 {
        0%   {
            transform: rotate(0deg);
        }
        50%   {
            transform: rotate(10deg);
        }
        100%   {
            transform: rotate(0deg);
        }   
    }
     @keyframes baloon-3 {
        0%   {
            transform: rotate(-2deg);
        }
        50%   {
            transform: rotate(2deg);
        }
        100%   {
            transform: rotate(-2deg);
        }   
    }
    #baloon-1{
        animation: baloon-1 3s ease-in-out infinite;
        transform-origin: bottom;
    }
    #baloon-3{
        animation: baloon-3 2.3s ease-in-out infinite;
        transform-origin: bottom;
    }
    #baloon-2{
        animation: baloon-2 3s ease-in-out infinite;
        transform-origin: bottom;
    }

</style>
</svg>
